<svg viewBox="0 0 650 1060" fill="none" xmlns="http://www.w3.org/2000/svg" class="absolute inset-0 bg-cover bg-center" style="
"><g clip-path="url(#clip0_701_42)"><path fill-rule="evenodd" clip-rule="evenodd" d="M24.9616 0C11.1757 0 0 11.1613 0 24.9294V1035.07C0 1048.84 11.1757 1060 24.9616 1060H625.038C638.824 1060 650 1048.84 650 1035.07V24.9294C650 11.1613 638.824 0 625.038 0H24.9616ZM19.9693 43.8758C19.9693 30.6583 30.6989 19.9435 43.9324 19.9435H605.069C618.303 19.9435 629.032 30.6583 629.032 43.8758V963.274C629.032 976.491 618.303 987.206 605.069 987.206H561.137C547.903 987.206 537.174 976.491 537.174 963.274V821.686C537.174 808.469 526.444 797.754 513.21 797.754H135.791C122.558 797.754 111.828 808.469 111.828 821.686V963.274C111.828 976.491 101.098 987.206 87.8648 987.206H43.9324C30.6989 987.206 19.9693 976.491 19.9693 963.274V43.8758Z" fill="#D7C6A5"></path></g></svg>